<svg xmlns="http://www.w3.org/2000/svg" viewBox="0 0 24 24">
  <path fill="currentColor" d="M12 .5C5.65.5.5 5.82.5 12.38c0 5.24 3.35 9.69 8 11.25.58.1.79-.26.79-.57v-2.23c-3.25.73-3.94-1.62-3.94-1.62-.53-1.39-1.3-1.76-1.3-1.76-1.06-.75.08-.73.08-.73 1.17.08 1.79 1.25 1.79 1.25 1.04 1.83 2.73 1.3 3.4.99.1-.78.4-1.3.72-1.6-2.59-.3-5.31-1.35-5.31-5.98 0-1.32.46-2.4 1.23-3.24-.12-.31-.53-1.55.12-3.22 0 0 1-.33 3.3 1.24a11.1 11.1 0 0 1 6 0c2.3-1.57 3.3-1.24 3.3-1.24.65 1.67.24 2.91.12 3.22.77.84 1.23 1.92 1.23 3.24 0 4.64-2.73 5.68-5.33 5.97.41.36.77 1.07.77 2.16v3.2c0 .31.2.68.8.56 4.64-1.56 8-6.01 8-11.25C23.5 5.82 18.35.5 12 .5Z"/>
</svg>
